<mxfile host="app.diagrams.net" modified="2024-06-07T11:51:45.515Z" agent="Mozilla/5.0 (X11; Linux x86_64) AppleWebKit/537.36 (KHTML, like Gecko) Chrome/125.0.0.0 Safari/537.36" version="24.4.13" etag="ku6zn823armfd86MifaS" type="github">
  <diagram name="Page-1" id="U5Nb3ThI2iqinUcOSn6h">
    <mxGraphModel>
      <root>
        <mxCell id="0" />
        <mxCell id="1" parent="0" />
      </root>
    </mxGraphModel>
  </diagram>
</mxfile>
